<svg xmlns="http://www.w3.org/2000/svg" width="622.101" height="149.063" viewBox="0 0 622.101 149.063">
  <g id="marcas" transform="translate(-389.5 -2011.201)">
    <g id="marca" transform="translate(1 -3)">
      <path id="Path_2" data-name="Path 2" d="M810,2083.264h210v80" transform="translate(-10.899)" fill="none" stroke="#000" stroke-width="3"/>
      <path id="Path_3" data-name="Path 3" d="M1020,2083.264H810v80" transform="translate(-420)" fill="none" stroke="#000" stroke-width="3"/>
      <path id="Path_4" data-name="Path 4" d="M700,2109v26.2" transform="translate(-1 28.064)" fill="none" stroke="#000" stroke-width="3"/>
    </g>
    <g id="bikcraft" transform="translate(600 2011.201)">
      <path id="Path_12" data-name="Path 12" d="M9.25,10.188c3.121-.124,10.733-.374,14.6-1.251-.126,1.627-.375,6.63-.375,16.136v4.253c3.494-2.878,6.366-4.379,9.86-4.379a10.272,10.272,0,0,1,8.985,4.629,19.66,19.66,0,0,1,2.5,10.132c0,11.631-5.491,18.262-16.6,18.262a20.9,20.9,0,0,1-8.736-2.127c-1.5.5-3.494,1.5-5.491,2.127l-.625-.376c.126-3.378.126-9.756.126-18.388V23.2c0-4-.126-6.754-.25-9.13-.126-1.627-.5-1.877-4.243-1.877Zm18.969,45.4c4.243,0,6.24-5.129,6.24-14.635A20.7,20.7,0,0,0,32.711,31.7a4.5,4.5,0,0,0-3.994-2.5A5.745,5.745,0,0,0,24.1,31.952c-.623.877-.873,1.627-.873,11.507,0,8.131.375,8.381.875,9.382A4.492,4.492,0,0,0,28.219,55.592Zm38.438,1.627c-2.622,0-5.241-.252-9.361-.252-4.367,0-6.489.252-8.61.252V55.092c3.494-.126,3.994-.75,4.119-2.127.124-1.5.25-3.876.25-7.755V37.2c0-3.252,0-5.878-.126-7s-.625-1.5-3.87-1.375V26.7c4.369-.374,9.61-.5,13.854-1.375-.126,1.627-.25,4.629-.25,11.507v8.631c0,4,.126,5.754.25,7.5s.625,2,3.744,2.375ZM57.3,10.814c3.247,0,5.118,1.877,5.118,5.253,0,2.878-2.123,4.879-5.367,4.879a4.657,4.657,0,0,1-4.866-4.879A4.952,4.952,0,0,1,57.3,10.814ZM69.9,10.188a91.823,91.823,0,0,0,13.6-1.251q-.253,7.752-.252,15.51V40.083c2.372-.626,7.488-6.88,9.485-10.507.375-.75.375-1.127-.623-1.127l-2.746-.25V26.074c4.618.126,9.361-.126,14.1-.376v2.127c-3.494.376-4.868.626-6.242,1.751a58.467,58.467,0,0,0-5.99,6.254c1.5,3.128,7.739,14.635,10.11,17.761a3.476,3.476,0,0,0,3.121,1.5l1.745.126-.124,2.125a92.306,92.306,0,0,0-13.854.75c-1.5-3.5-5.99-12.008-7.362-14.635-.749-1.375-1.124-1.875-1.623-1.751,0,5.129-.124,7.631.126,11.257.126,1.627.5,2.127,3.87,2.251v2.127c-2.372,0-4.868-.25-8.985-.25-4.868,0-6.989.25-8.862.25V55.216c3.245-.124,3.744-.748,3.87-2,.124-1.5.248-4.753.248-11.257V25.824c0-5.129,0-9.006-.124-12.258q0-1.126-1.5-1.127H69.775ZM39.826,88.113c-2.123,6.754-6.24,10.006-13.1,10.006-5.866,0-9.61-1.627-12.23-5.129-2-2.626-3-6.5-3-10.881,0-9.632,5.866-17.011,16.6-17.011,6.489,0,11.232,3,11.232,7.881,0,3.376-2.746,4.751-4.992,4.751a5.652,5.652,0,0,1-2.5-.624,1.956,1.956,0,0,1-.875-2.251,18.882,18.882,0,0,0,.375-2.628c0-3.126-1.124-4.627-3.494-4.627-3.87,0-5.866,5.63-5.866,13.384,0,3.126.375,6.628,1.5,8.754,1.248,2.878,3.245,4.5,6.24,4.5,3.744,0,6.116-2.125,7.863-7Zm7.112-9.13a70.038,70.038,0,0,0-.375-8.758,1.316,1.316,0,0,0-1.5-1.249H42.819V66.85c3.744-.126,8.862-.376,12.48-1.5l.375.25c.25,1.5.5,5.129.625,7.381h.248c1.625-4.379,3.87-7.881,8.488-7.881a4.709,4.709,0,0,1,4.619,5c0,4.129-3.121,5.379-4.369,5.379a2.415,2.415,0,0,1-2.5-1.253c-.623-1.375-1-2.125-2.244-2.125-1.374,0-2.123,1.251-3,3.252a13.307,13.307,0,0,0-.625,4.5c0,7.13,0,11.133.126,12.884s.747,2.249,5.739,2.375l-.124,2.127c-3.494-.126-6.615-.252-10.233-.252-3.744,0-6.489.126-9.61.252l.373-2.127c3-.126,3.744-.5,3.744-1.751.126-1.751.25-5.129.25-9.006V78.981h-.25ZM89.246,73.23c0-3.754-1.25-5.756-3.746-5.756-2.869,0-4.241,1.627-4.241,4.629a13.992,13.992,0,0,0,.248,2.378,1.784,1.784,0,0,1-.747,1.875,6.81,6.81,0,0,1-3.494,1.127c-2.372,0-4.369-1.129-4.369-3.878,0-4,5.866-8.505,14.1-8.505,6.737,0,9.732,2.752,10.856,4.5a6.3,6.3,0,0,1,1,3.378V91.365c0,2.127.625,2.628,1.374,2.628,1,0,2.121-1.627,2.62-4.379l2.123,1c-1.124,5.379-4.369,7.631-8.862,7.631-3.87,0-5.99-1.627-6.615-4.879-3,3-6.114,4.879-9.359,4.879-5.241,0-8.736-3.5-8.736-9.258,0-3.5,1.5-5.5,4.119-6.628,4.241-1.877,10.607-3.752,13.726-6V73.228ZM81.382,87.112c0,2.752,1.124,5.754,3.87,5.754,2,0,2.869-1.251,3.494-2.5a9.311,9.311,0,0,0,.373-3V78.857c-1.374.877-3.494,1.877-5.118,2.878C82.5,82.736,81.382,83.984,81.382,87.112Zm24.71-20.887,3.994.124v-2c.126-5.253,1.374-9.132,4.119-11.884a12.319,12.319,0,0,1,9.109-3.752c5.118,0,7.863,2.5,7.863,5.754,0,2.378-2,4-4.744,4a2.361,2.361,0,0,1-2.5-2.5c0-2.626-.373-4.751-2.244-4.751-1.25,0-2,1.125-2.248,3.252-.248,2,.126,5.754.375,11.631h6.116l-.375,2.5-5.741.376c-.126,2.375-.126,6.5-.126,11.381,0,4.629,0,8.756.126,12.008.126,1.627.375,2.251,1.747,2.377a33.2,33.2,0,0,0,3.371.248l-.254,2.127c-2.37,0-6.114-.25-9.359-.25-3.371,0-7.364.25-9.61.25l.126-2.127c3.245-.124,3.744-.5,3.87-1.875.248-2.127.248-5.379.248-9.756V68.851l-4.241-.25.373-2.378Z" transform="translate(8.971 8.908)" fill="#fec63e"/>
      <path id="Path_13" data-name="Path 13" d="M89.841,43.108l-.252,2.37-7.612.5c0,2.622-.126,6.489-.126,11.731,0,5.491,0,9.235.252,11.481.124,1.623.747,2.372,2,2.372,2.62,0,4.241-2.871,4.866-5.491h1l.875,2.869c-1.5,3.62-5.243,6.116-10.735,6.116-3,0-5.615-1-6.863-2.5a6.875,6.875,0,0,1-1.248-4.493c0-5.118.25-16.6.25-22.09L68.25,45.6l.25-2.37h3.744c.126-2.372.126-5.118.126-7.614A34.491,34.491,0,0,0,81.728,32l.749.126q-.327,5.547-.375,11.106h7.739v-.126Z" transform="translate(68.278 32.097)" fill="#fec63e"/>
      <path id="Path_14" data-name="Path 14" d="M190,10V114H10V10ZM200,0H0V124H200Z" fill="#fec63e"/>
    </g>
  </g>
</svg>
